<svg width="120" height="20" viewBox="0 0 120 20" fill="none" xmlns="http://www.w3.org/2000/svg">
<path fill-rule="evenodd" clip-rule="evenodd" d="M18.2148 8.80636L18.4791 19.365H22.7232L22.0036 1.02323H17.2162L12.5023 12.0812C12.3359 12.5217 12.1939 12.9525 12.0764 13.3734C11.9491 12.9133 11.7974 12.4825 11.6212 12.0812L6.90725 1.02323H2.14926L1.42969 19.365H5.6737L5.9674 8.71825V7.91057L10.7254 19.365H13.3981L18.2148 7.91057V8.80636ZM31.0584 16.3252C28.8165 16.3252 27.6955 14.9643 27.6955 12.2427C27.6955 10.8427 27.9892 9.78537 28.5767 9.07069C29.1641 8.35602 30.0011 7.99868 31.0878 7.99868C32.1745 7.99868 33.0116 8.35602 33.599 9.07069C34.1864 9.78537 34.4801 10.8329 34.4801 12.2133C34.4801 13.5937 34.1815 14.6266 33.5843 15.3119C32.9871 15.9972 32.1451 16.3349 31.0584 16.3252ZM36.536 6.6917C35.2143 5.36025 33.3983 4.69452 31.0878 4.69452C28.7676 4.69452 26.9515 5.36025 25.6396 6.6917C24.3278 8.03294 23.6718 9.86859 23.6718 12.1986C23.6718 14.5287 24.3326 16.3496 25.6543 17.6615C26.976 18.9734 28.792 19.6293 31.1025 19.6293C33.413 19.6293 35.2241 18.9734 36.536 17.6615C37.8577 16.3496 38.5185 14.5287 38.5185 12.1986C38.5185 9.8588 37.8577 8.02315 36.536 6.6917ZM43.344 19.365H47.7349L53.7118 4.95885H49.5999L46.2223 12.9329L45.5028 15.1797C45.1601 13.9853 44.93 13.2364 44.8126 12.9329L41.6553 4.95885H37.5287L43.344 19.365ZM59.7562 7.63155C61.6554 7.63155 62.6736 8.66441 62.8107 10.7301H56.4961C56.78 8.66441 57.8667 7.63155 59.7562 7.63155ZM52.5311 12.228C52.5311 14.6755 53.1723 16.521 54.4548 17.7643C55.7373 19.0076 57.524 19.6293 59.8149 19.6293C62.1058 19.6391 64.2449 18.8804 66.2323 17.3531L65.0135 14.9741C63.3687 15.9336 61.6065 16.4133 59.7268 16.4133C57.8569 16.4133 56.78 15.3902 56.4961 13.3441H66.2323C66.3204 12.7273 66.3645 12.1595 66.3645 11.6406C66.3449 9.38887 65.7477 7.67071 64.5729 6.48611C63.3981 5.29172 61.7436 4.69452 59.6093 4.69452C57.4751 4.69452 55.7618 5.33577 54.4695 6.61827C53.1772 7.90078 52.5311 9.77069 52.5311 12.228ZM76.1389 15.8405C74.5921 15.8405 73.3977 15.3608 72.5557 14.4014C71.7138 13.442 71.2977 12.0371 71.3075 10.1868C71.2977 8.35602 71.7138 6.95114 72.5557 5.97213C73.3977 4.99312 74.5921 4.50361 76.1389 4.50361C77.6857 4.50361 78.8801 4.99312 79.7221 5.97213C80.564 6.95114 80.985 8.36091 80.985 10.2015C80.985 12.042 80.564 13.442 79.7221 14.4014C78.8801 15.3608 77.6857 15.8405 76.1389 15.8405ZM82.85 3.19663C81.2445 1.54211 79.0074 0.714844 76.1389 0.714844C73.2802 0.714844 71.0481 1.54211 69.4425 3.19663C67.8369 4.85116 67.0341 7.18121 67.0341 10.1868C67.0341 13.1923 67.8369 15.5175 69.4425 17.1622C71.0481 18.8069 73.2802 19.6293 76.1389 19.6293C79.0074 19.6293 81.2445 18.8069 82.85 17.1622C84.4556 15.5175 85.2584 13.1923 85.2584 10.1868C85.2584 7.18121 84.4556 4.85116 82.85 3.19663ZM90.8916 4.59172C91.3224 4.29802 91.8706 4.15117 92.5364 4.15117C94.1811 4.15117 96.1685 4.60151 98.4985 5.5022L99.7321 2.37427C97.2258 1.26798 94.7195 0.714844 92.2133 0.714844C90.2651 0.714844 88.7329 1.20924 87.6168 2.19804C86.5106 3.17705 85.9574 4.43508 85.9574 5.97213C85.9574 7.49938 86.398 8.71336 87.2791 9.61405C88.1602 10.5049 89.4965 11.2147 91.2881 11.7434C93.0797 12.2721 94.2349 12.7028 94.7538 13.0357C95.2825 13.3685 95.5468 13.8042 95.5468 14.3427C95.5468 14.8811 95.3559 15.2923 94.9741 15.5762C94.5923 15.8601 94.0587 16.0021 93.3734 16.0021C91.5133 15.9923 89.2909 15.307 86.7063 13.9462L85.135 17.2063C86.3196 17.9209 87.7147 18.5035 89.3203 18.9538C90.9259 19.4041 92.3503 19.6293 93.5937 19.6293C95.5713 19.6293 97.1426 19.1447 98.3076 18.1755C99.4726 17.2063 100.055 15.9189 100.055 14.3133C100.055 12.7077 99.6684 11.4986 98.895 10.6861C98.1216 9.87348 96.7657 9.14901 94.8272 8.51266C92.8986 7.86651 91.6503 7.3868 91.0825 7.07351C90.5245 6.76023 90.2455 6.33926 90.2455 5.81059C90.2455 5.28193 90.4609 4.87564 90.8916 4.59172ZM112.745 17.4202V11.8922H118.326V8.38703H112.745V2.85899H109.24V8.38703H103.712V11.8922H109.24V17.4202H112.745Z" fill="#181E22"/>
<path fill-rule="evenodd" clip-rule="evenodd" d="M18.2148 8.80636L18.4791 19.365H22.7232L22.0036 1.02323H17.2162L12.5023 12.0812C12.3359 12.5217 12.1939 12.9525 12.0764 13.3734C11.9491 12.9133 11.7974 12.4825 11.6212 12.0812L6.90725 1.02323H2.14926L1.42969 19.365H5.6737L5.9674 8.71825V7.91057L10.7254 19.365H13.3981L18.2148 7.91057V8.80636ZM31.0584 16.3252C28.8165 16.3252 27.6955 14.9643 27.6955 12.2427C27.6955 10.8427 27.9892 9.78537 28.5767 9.07069C29.1641 8.35602 30.0011 7.99868 31.0878 7.99868C32.1745 7.99868 33.0116 8.35602 33.599 9.07069C34.1864 9.78537 34.4801 10.8329 34.4801 12.2133C34.4801 13.5937 34.1815 14.6266 33.5843 15.3119C32.9871 15.9972 32.1451 16.3349 31.0584 16.3252ZM36.536 6.6917C35.2143 5.36025 33.3983 4.69452 31.0878 4.69452C28.7676 4.69452 26.9515 5.36025 25.6396 6.6917C24.3278 8.03294 23.6718 9.86859 23.6718 12.1986C23.6718 14.5287 24.3326 16.3496 25.6543 17.6615C26.976 18.9734 28.792 19.6293 31.1025 19.6293C33.413 19.6293 35.2241 18.9734 36.536 17.6615C37.8577 16.3496 38.5185 14.5287 38.5185 12.1986C38.5185 9.8588 37.8577 8.02315 36.536 6.6917ZM43.344 19.365H47.7349L53.7118 4.95885H49.5999L46.2223 12.9329L45.5028 15.1797C45.1601 13.9853 44.93 13.2364 44.8126 12.9329L41.6553 4.95885H37.5287L43.344 19.365ZM59.7562 7.63155C61.6554 7.63155 62.6736 8.66441 62.8107 10.7301H56.4961C56.78 8.66441 57.8667 7.63155 59.7562 7.63155ZM52.5311 12.228C52.5311 14.6755 53.1723 16.521 54.4548 17.7643C55.7373 19.0076 57.524 19.6293 59.8149 19.6293C62.1058 19.6391 64.2449 18.8804 66.2323 17.3531L65.0135 14.9741C63.3687 15.9336 61.6065 16.4133 59.7268 16.4133C57.8569 16.4133 56.78 15.3902 56.4961 13.3441H66.2323C66.3204 12.7273 66.3645 12.1595 66.3645 11.6406C66.3449 9.38887 65.7477 7.67071 64.5729 6.48611C63.3981 5.29172 61.7436 4.69452 59.6093 4.69452C57.4751 4.69452 55.7618 5.33577 54.4695 6.61827C53.1772 7.90078 52.5311 9.77069 52.5311 12.228ZM76.1389 15.8405C74.5921 15.8405 73.3977 15.3608 72.5557 14.4014C71.7138 13.442 71.2977 12.0371 71.3075 10.1868C71.2977 8.35602 71.7138 6.95114 72.5557 5.97213C73.3977 4.99312 74.5921 4.50361 76.1389 4.50361C77.6857 4.50361 78.8801 4.99312 79.7221 5.97213C80.564 6.95114 80.985 8.36091 80.985 10.2015C80.985 12.042 80.564 13.442 79.7221 14.4014C78.8801 15.3608 77.6857 15.8405 76.1389 15.8405ZM82.85 3.19663C81.2445 1.54211 79.0074 0.714844 76.1389 0.714844C73.2802 0.714844 71.0481 1.54211 69.4425 3.19663C67.8369 4.85116 67.0341 7.18121 67.0341 10.1868C67.0341 13.1923 67.8369 15.5175 69.4425 17.1622C71.0481 18.8069 73.2802 19.6293 76.1389 19.6293C79.0074 19.6293 81.2445 18.8069 82.85 17.1622C84.4556 15.5175 85.2584 13.1923 85.2584 10.1868C85.2584 7.18121 84.4556 4.85116 82.85 3.19663ZM90.8916 4.59172C91.3224 4.29802 91.8706 4.15117 92.5364 4.15117C94.1811 4.15117 96.1685 4.60151 98.4985 5.5022L99.7321 2.37427C97.2258 1.26798 94.7195 0.714844 92.2133 0.714844C90.2651 0.714844 88.7329 1.20924 87.6168 2.19804C86.5106 3.17705 85.9574 4.43508 85.9574 5.97213C85.9574 7.49938 86.398 8.71336 87.2791 9.61405C88.1602 10.5049 89.4965 11.2147 91.2881 11.7434C93.0797 12.2721 94.2349 12.7028 94.7538 13.0357C95.2825 13.3685 95.5468 13.8042 95.5468 14.3427C95.5468 14.8811 95.3559 15.2923 94.9741 15.5762C94.5923 15.8601 94.0587 16.0021 93.3734 16.0021C91.5133 15.9923 89.2909 15.307 86.7063 13.9462L85.135 17.2063C86.3196 17.9209 87.7147 18.5035 89.3203 18.9538C90.9259 19.4041 92.3503 19.6293 93.5937 19.6293C95.5713 19.6293 97.1426 19.1447 98.3076 18.1755C99.4726 17.2063 100.055 15.9189 100.055 14.3133C100.055 12.7077 99.6684 11.4986 98.895 10.6861C98.1216 9.87348 96.7657 9.14901 94.8272 8.51266C92.8986 7.86651 91.6503 7.3868 91.0825 7.07351C90.5245 6.76023 90.2455 6.33926 90.2455 5.81059C90.2455 5.28193 90.4609 4.87564 90.8916 4.59172ZM112.745 17.4202V11.8922H118.326V8.38703H112.745V2.85899H109.24V8.38703H103.712V11.8922H109.24V17.4202H112.745Z" fill="url(#paint0_linear_7720_175204)" fill-opacity="0.4"/>
<defs>
<linearGradient id="paint0_linear_7720_175204" x1="2.50111" y1="0.714863" x2="94.2868" y2="17.8577" gradientUnits="userSpaceOnUse">
<stop stop-opacity="0"/>
<stop offset="1" stop-color="#1188DE"/>
</linearGradient>
</defs>
</svg>
